<?xml version="1.0" encoding="UTF-8" standalone="no"?>
<!-- Created with Inkscape (http://www.inkscape.org/) -->

<svg
   xmlns:dc="http://purl.org/dc/elements/1.1/"
   xmlns:cc="http://creativecommons.org/ns#"
   xmlns:rdf="http://www.w3.org/1999/02/22-rdf-syntax-ns#"
   xmlns:svg="http://www.w3.org/2000/svg"
   xmlns="http://www.w3.org/2000/svg"
   xmlns:sodipodi="http://sodipodi.sourceforge.net/DTD/sodipodi-0.dtd"
   xmlns:inkscape="http://www.inkscape.org/namespaces/inkscape"
   width="16px"
   height="16px"
   viewBox="0 0 16 16"
   version="1.1"
   id="SVGRoot"
   inkscape:version="0.92.4 (5da689c313, 2019-01-14)"
   sodipodi:docname="rysunek-1.svg">
  <defs
     id="defs3773" />
  <sodipodi:namedview
     id="base"
     pagecolor="#ffffff"
     bordercolor="#666666"
     borderopacity="1.0"
     inkscape:pageopacity="0.0"
     inkscape:pageshadow="2"
     inkscape:zoom="32"
     inkscape:cx="9.7860457"
     inkscape:cy="7.3395968"
     inkscape:document-units="px"
     inkscape:current-layer="layer4"
     showgrid="false"
     inkscape:window-width="1920"
     inkscape:window-height="1017"
     inkscape:window-x="-8"
     inkscape:window-y="-8"
     inkscape:window-maximized="1"
     inkscape:grid-bbox="true" />
  <metadata
     id="metadata3776">
    <rdf:RDF>
      <cc:Work
         rdf:about="">
        <dc:format>image/svg+xml</dc:format>
        <dc:type
           rdf:resource="http://purl.org/dc/dcmitype/StillImage" />
        <dc:title></dc:title>
      </cc:Work>
    </rdf:RDF>
  </metadata>
  <g
     inkscape:label="Layer 1"
     inkscape:groupmode="layer"
     id="layer1" />
  <g
     inkscape:groupmode="layer"
     id="layer4"
     inkscape:label="Layer 2">
    <path
       id="rect3789"
       style="fill:#008080;stroke-width:1.33325744"
       d="M 2.1875,1.96875 V 13.875 h 1.0351562 c 0.035437,-0.07716 0.079789,-0.125016 0.21875,-0.121094 0.010553,2.98e-4 0.018115,0.01038 0.027344,0.01563 0.00846,-0.0028 0.016899,-0.0051 0.025391,-0.0078 -7.768e-4,0.0038 0.00298,-0.0066 0.044922,-0.04492 0.011925,-0.01092 0.025879,-0.01797 0.039063,-0.02734 0.049447,-0.03512 0.098818,-0.0739 0.15625,-0.0957 0.020447,-0.0163 0.038774,-0.03435 0.060547,-0.04883 0.019852,-0.0132 0.041002,-0.0229 0.0625,-0.0332 0.01597,-0.0077 0.035858,-0.008 0.050781,-0.01758 0.019275,-0.01232 0.035693,-0.02827 0.054687,-0.04102 0.013164,-0.0088 0.027446,-0.0172 0.041016,-0.02539 0.048168,-0.02933 0.1841459,-0.111797 0.2734376,-0.121093 0.010107,-0.008 0.021136,-0.01576 0.03125,-0.02344 0.2052585,-0.110977 0.3706481,-0.277809 0.5625,-0.408203 0.043039,-0.02925 0.088567,-0.05464 0.1328124,-0.08203 0.034129,-0.02426 0.068809,-0.04885 0.1035157,-0.07227 0.039039,-0.02635 0.079543,-0.05066 0.1191406,-0.07617 0.039239,-0.02625 0.078057,-0.05367 0.1171875,-0.08008 0.102893,-0.06945 0.1192883,-0.08588 0.2304688,-0.146484 0.042432,-0.02313 0.087671,-0.04276 0.1308593,-0.06445 0.1612602,-0.08387 0.3067006,-0.195097 0.46875,-0.277344 0.059044,-0.02997 0.1665144,-0.07065 0.2285157,-0.0957 0.036547,-0.01294 0.07139,-0.03071 0.1074218,-0.04492 0.00631,-0.0055 0.01299,-0.01037 0.019531,-0.01563 0.079477,-0.06389 0.1654363,-0.119146 0.25,-0.175781 0.1078592,-0.05419 0.1926454,-0.140315 0.2871093,-0.212891 0.063373,-0.04869 0.1287752,-0.09631 0.1953126,-0.140625 0.1114641,-0.08023 0.2502623,-0.151259 0.3496093,0.0332 0.035912,-0.02791 0.072207,-0.05552 0.1074219,-0.08398 0.03698,-0.02989 0.07056,-0.06177 0.1074219,-0.0918 0.148904,-0.121319 0.1596197,-0.12677 0.3105469,-0.236328 0.078771,-0.05194 0.1249905,-0.0871 0.2070312,-0.125 0.017637,-0.0081 0.036369,-0.01302 0.054687,-0.01953 0.013406,-0.01311 0.028135,-0.02355 0.042969,-0.03516 0.1170652,0.01796 0.1622948,0.04196 0.1855469,0.08399 0.086207,-0.04315 0.1681278,-0.09462 0.2558594,-0.134766 0.2922617,-0.151453 0.5967344,-0.274245 0.8925781,-0.417969 0.117213,-0.05024 0.2260254,-0.120716 0.3417974,-0.173828 0.03591,-0.01647 0.179622,-0.06712 0.228515,-0.0918 0.02069,-0.01044 0.03853,-0.02552 0.05859,-0.03711 0.02753,-0.01591 0.05605,-0.02972 0.08398,-0.04492 0.08442,-0.059425 0.181401,-0.092319 0.273438,-0.1367188 0.06901,-0.033292 0.134677,-0.077256 0.201172,-0.1152343 0.05898,-0.036329 0.124974,-0.058706 0.185547,-0.091797 0.01048,-0.00573 0.01849,-0.014441 0.0293,-0.019531 0.03699,-0.017424 0.07755,-0.031015 0.115235,-0.046875 -0.01359,-0.015739 0.165008,-0.094102 0.183593,-0.1015626 0.0071,-0.00115 0.01326,-3.266e-4 0.02149,-0.00391 0.0032,-0.0018 0.0038,-0.00297 0.0059,-0.00391 0.02671,-0.011975 0.05518,-0.017631 0.08203,-0.029297 0.0016,-6.948e-4 -0.0044,-0.00296 -0.0059,-0.00391 0.01679,-0.00628 0.03399,-0.013252 0.05078,-0.019531 0.0071,-0.00134 0.01369,-3.497e-4 0.02149,-0.00391 0.0031,-0.0018 0.0038,-0.00297 0.0059,-0.00391 0.08053,-0.037198 0.113526,-0.039374 0.197266,-0.03125 -0.0098,0.00137 0.0088,0.00162 0.01953,0.00195 0.003,-0.00429 0.01222,-0.00875 0.01953,-0.011719 0.0082,-0.00333 0.01711,-0.00462 0.02539,-0.00781 0.04268,-0.029057 0.08467,-0.059343 0.128906,-0.085938 0.110775,-0.066594 0.122595,-0.063282 0.22461,-0.1171874 0.06293,-0.033252 0.0771,-0.045395 0.136718,-0.085938 0.119939,-0.081959 0.246912,-0.1598182 0.398438,-0.1425781 0.02079,0.00237 0.0402,0.010776 0.06055,0.015625 0.05752,0.052884 0.07844,0.082122 0.0957,0.1152344 0.0134,-0.010102 0.02775,-0.019045 0.04101,-0.029297 0.143422,-0.1107789 0.275886,-0.2366416 0.423829,-0.3417968 0.03762,-0.034861 0.07274,-0.071679 0.111328,-0.1054688 C 13.652417,8.5115338 13.782673,8.4348668 13.875,8.3164062 V 7.6660156 c -0.03926,0.015537 -0.0778,0.018746 -0.115234,0.011719 -0.0033,0.00451 -0.0065,0.00918 -0.0098,0.013672 -0.0019,0.00272 -0.0041,0.0018 -0.0078,0.00586 -0.0014,0.0019 -0.0025,0.00396 -0.0039,0.00586 -0.01067,0.014366 -0.02178,0.027796 -0.03125,0.042969 -0.0048,0.00776 0.01447,-0.01191 0.01953,-0.019531 -0.02824,0.067138 -0.05269,0.1278463 -0.15625,0.1289063 -0.05515,5.644e-4 -0.103019,-0.040242 -0.154296,-0.060547 -0.03257,-0.042061 -0.05596,-0.093702 -0.07031,-0.1464844 -0.02727,-0.022449 -0.02841,-0.057444 -0.04297,-0.085937 l -0.002,0.00195 c -0.07287,0.076155 -0.06519,0.1154467 -0.208984,-0.052734 -0.02973,0.035264 -0.06534,0.079273 -0.09375,0.089844 -0.05143,0.019142 -0.10899,0.039177 -0.162109,0.025391 -0.12173,-0.031593 -0.130749,-0.1421611 -0.13086,-0.2363281 0.01235,-0.044622 0.04148,-0.081524 0.06055,-0.1230469 -0.0084,-0.0035 -0.01673,-0.007 -0.02539,-0.00977 -0.02838,-0.00906 -0.05781,-0.015578 -0.08594,-0.025391 -0.0083,-0.00288 -0.01389,-0.0093 -0.02149,-0.013672 -0.01503,-0.00694 -0.02992,-0.014357 -0.04492,-0.021484 -0.02616,0.030196 -0.05139,0.065453 -0.07813,0.072266 -0.08691,0.022147 -0.151666,0.017175 -0.207032,-0.046875 -0.01311,0.015495 -0.02555,0.031711 -0.03906,0.046875 -2.84e-4,4.56e-4 -0.0039,0.00782 -0.0039,0.00781 h -0.002 c -0.01053,0.011705 -0.01847,0.025647 -0.0293,0.037109 l 0.002,0.00195 c 0.0014,0.00141 -0.004,0.00157 -0.0059,0.00195 0.0013,-0.00133 0.0026,-0.00257 0.0039,-0.00391 -0.02402,-0.024063 -0.04726,-0.049075 -0.07227,-0.072266 -0.03218,0.00521 -0.06858,0.013282 -0.121094,-0.00781 -0.04538,-0.00161 -0.09162,0.00363 -0.134765,-0.00977 -0.0042,-0.00129 0.0084,-0.020357 0.01172,-0.033203 -0.0036,-9.838e-4 -0.0022,-9.759e-4 -0.0059,-0.00195 6.17e-4,-0.010202 -5.59e-4,-0.019344 0.002,-0.029297 0.0032,-0.013842 0.0173,-0.058118 0.02734,-0.09375 -0.0016,7.6e-4 -0.0023,0.0012 -0.0039,0.00195 -0.06238,0.028613 -0.15185,-0.00361 -0.201172,-0.035156 -0.024,-0.015351 -0.03468,-0.044353 -0.05274,-0.066406 0.01587,-0.0158 0.0031,-0.00153 -0.0293,-0.046875 -0.01368,-0.019183 -0.02014,-0.041735 -0.02734,-0.064453 -0.0013,-0.00179 -0.0028,-0.00387 -0.0039,-0.00586 8.4e-4,0.00102 0.0031,9.489e-4 0.0039,0.00195 -0.0018,-0.00566 -0.006,-0.00998 -0.0078,-0.015625 0.002,0.0053 -4.8e-5,0.00566 0.002,0.00977 -0.0026,-0.00322 -0.0053,-0.00648 -0.0078,-0.00977 -0.01876,-0.00442 -0.0376,-0.00321 -0.05469,-0.011719 -0.04134,0.00427 -0.08098,0.00201 -0.117187,-0.023438 -0.04113,-0.028905 -0.06046,-0.082259 -0.08984,-0.1230468 -0.004,-0.03377 0.0089,-0.06616 0.0078,-0.099609 -0.0065,-0.00507 -0.01068,-0.013056 -0.01758,-0.017578 -0.03073,-0.028073 -0.02194,-0.025229 -0.07422,-0.044922 -0.02791,-0.010514 -0.0852,0.00248 -0.08594,-0.027344 -2.21e-4,-0.00894 0.0021,-0.00522 0.002,-0.013672 -0.0096,-0.00548 0.0042,-0.027531 0.0039,-0.041016 -0.01678,-0.011444 -0.0371,-0.011944 -0.05274,-0.027344 -0.01842,-0.018141 -0.03139,-0.041816 -0.04687,-0.0625 -0.01236,-0.024735 -0.03628,-0.077746 -0.05273,-0.1171875 -0.02078,-0.00971 -0.04394,-0.011073 -0.06641,-0.015625 -0.01225,0.017081 -0.01915,0.022538 -0.03125,0.042969 -0.02747,-0.00977 -0.05529,-0.017666 -0.08203,-0.029297 -0.009,-0.00391 -0.03518,-0.018254 -0.02539,-0.017578 0.02154,0.00149 0.08251,0.011434 0.0625,0.019531 -0.01893,0.00766 -0.117242,-0.024713 -0.13086,-0.044922 -0.08034,-0.033739 -0.16342,-0.06782 -0.238281,-0.1191406 -0.0133,-0.021645 3e-5,-0.00188 -0.04883,-0.023437 -0.02117,-0.00935 -0.04167,-0.01921 -0.0625,-0.029297 h -0.002 c -0.02205,0.033059 -0.0085,0.039121 -0.04883,0.087891 -0.02729,0.032987 -0.08285,-0.020424 -0.123047,-0.035156 -0.02888,-0.010584 -0.04821,-0.038452 -0.0332,-0.017578 -0.04038,-0.01598 -0.06541,-0.048709 -0.0957,-0.076172 -0.0014,-0.012495 6.19e-4,-4.254e-4 -0.04687,-0.021484 C 10.009713,5.9264238 9.9624225,5.905237 9.9199219,5.875 9.8989329,5.86611 9.8760376,5.8574813 9.8554688,5.8476562 c -0.018062,-0.00863 -0.058125,-0.03237 -0.080078,-0.041016 -0.095182,-0.037486 0.018095,0.02223 -0.1425781,-0.048828 -0.020724,-0.00917 -0.039398,-0.023115 -0.058594,-0.035156 -0.082964,-0.05787 0.010686,0.0043 -0.1015626,-0.066406 C 9.4517724,5.6430906 9.4341584,5.6243672 9.4121094,5.6132812 9.3717944,5.5930112 9.3270074,5.583708 9.2871094,5.5625 9.2045822,5.5211925 9.1976056,5.5210755 9.1171875,5.4667969 9.0492978,5.4209746 8.990495,5.3671422 8.9101562,5.34375 8.8304652,5.3037656 8.8262458,5.3052776 8.75,5.2519531 8.6995673,5.2166817 8.6545369,5.1711333 8.6035156,5.1367188 8.5610885,5.1081011 8.511941,5.0924636 8.4726562,5.0585938 8.4050437,5.0089555 8.3278589,4.9730447 8.2578125,4.9277344 8.1859721,4.8759538 8.1176042,4.8232651 8.1191406,4.7363281 8.0998289,4.7285239 7.9875161,4.6823482 7.9765625,4.6777344 7.8070585,4.6080182 7.6602172,4.4961984 7.4941406,4.4199219 7.4291416,4.39067 7.36643,4.3561809 7.3027344,4.3242188 h -0.00195 c -0.032882,0.00645 -0.066004,0.00772 -0.09375,-0.00781 -0.037478,-0.020983 -0.037257,-0.043069 -0.052734,-0.064453 -0.012963,-0.00659 -0.026084,-0.012973 -0.039063,-0.019531 -0.00431,-0.00308 -0.00931,-0.00481 -0.013672,-0.00781 -0.019493,-0.00217 -0.038345,-0.00523 -0.056641,-0.011719 C 6.9447113,4.1773283 6.9277873,4.1614507 6.84375,4.1074219 6.7653761,4.0529255 6.6670813,4.0328574 6.5859375,3.984375 6.5424085,3.958367 6.4864658,3.9122092 6.4433594,3.8789062 6.4064658,3.8685297 6.3786839,3.8551543 6.359375,3.8398438 6.2720562,3.8034276 6.1843137,3.7669457 6.0996094,3.7246094 c -0.020761,0.00544 -0.042911,0.00878 -0.068359,0 -0.055195,-0.019043 -0.088042,-0.044527 -0.109375,-0.072266 -0.094307,0.092724 -0.1513442,0.1331995 -0.3457031,-0.00781 -7.898e-4,-5.728e-4 7.118e-4,-0.00327 0,-0.00391 -0.066374,0.017254 -0.1359513,0.079201 -0.1992188,0.052734 -0.1411594,-0.059051 -0.1087636,-0.1837068 -0.056641,-0.2910156 -0.021365,-0.021428 -0.03991,-0.045911 -0.0625,-0.066406 -0.00184,-4.928e-4 -0.00404,5.459e-4 -0.00586,0 -0.046674,0.061441 -0.094969,0.011307 -0.1445312,-0.066406 -0.026074,-0.00618 -0.054182,-0.00711 -0.068359,-0.025391 -0.015478,-0.00567 -0.032043,-0.010385 -0.046875,-0.017578 -0.00162,-7.871e-4 0.00756,-0.00331 0.00586,-0.00391 -0.02522,-0.00885 -0.053322,-0.011526 -0.078125,-0.021484 -0.015065,-0.00605 -0.056693,-0.021175 -0.041016,-0.025391 0.02068,-0.00556 0.080206,0.028022 0.060547,0.019531 -0.033491,-0.014465 -0.067381,-0.026314 -0.1015625,-0.039063 -0.00786,-0.00747 -0.014629,-0.013859 -0.023437,-0.021484 -0.00644,-0.00478 -0.010618,-0.00337 -0.015625,-0.00586 -0.00339,-0.00169 -0.00498,-0.0053 -0.00781,-0.00781 -0.018474,-0.00739 -0.038167,-0.014098 -0.056641,-0.021484 -0.00604,-0.00274 -0.010004,-0.00624 -0.015625,-0.00977 -0.031548,-0.015061 -0.1041074,-0.046976 -0.1289062,-0.078125 -0.00688,-0.00865 0.038865,0.019206 0.029297,0.013672 -0.095257,-0.05509 -0.046342,-0.016357 -0.09375,-0.056641 -0.00842,-0.00765 -0.022771,-0.017901 -0.023437,-0.023437 -0.048882,-0.020822 -0.1303009,-0.058828 -0.1367187,-0.066406 -0.00972,-0.010879 -0.019009,-0.022735 -0.029297,-0.033203 -0.00326,6.546e-4 -0.00653,0.00125 -0.00977,0.00195 -0.00202,-0.00515 -0.00373,-0.010509 -0.00586,-0.015625 -0.00491,-0.00537 -0.00969,-0.0036 -0.011719,-0.00781 -0.00153,-0.00317 0.00515,0.00205 0.00977,0.00391 v -0.00195 l -0.00195,-0.00195 c -0.01856,-0.00792 -0.032553,-0.010158 -0.060547,-0.03125 -0.014287,-0.011131 -0.032396,-0.018498 -0.042969,-0.033203 -0.00242,-0.00336 0.1550662,0.07986 -0.035156,-0.019531 -0.00404,-0.00233 -0.00593,-0.00712 -0.00977,-0.00977 -0.012156,-0.00842 -0.051743,-0.021308 -0.037109,-0.023438 0.021513,-0.00313 0.041823,0.01282 0.0625,0.019531 -0.017333,-0.0053 -0.079463,-0.025223 -0.1132813,-0.050781 0.00445,0.00222 0.00702,0.00548 0.011719,0.00781 0.011702,0.00581 -0.041086,-0.02922 -0.035156,-0.017578 0.00322,0.00631 0.016523,0.00454 0.023437,0.00977 -0.04133,-0.020564 -0.074821,-0.037602 -0.1113281,-0.068359 0.00928,0.00372 0.036229,0.016297 0.027344,0.011719 -0.0039,-0.00201 -0.025214,-0.012894 -0.039063,-0.019531 -0.02038,4.837e-4 -0.01569,-0.00209 -0.042969,0 -0.00957,-0.016085 -0.019359,-0.032945 -0.029297,-0.048828 -0.00521,-0.00401 -0.00777,-0.00778 -0.011719,-0.011719 -0.012178,-0.01014 -0.018169,-0.010183 -0.027344,-0.015625 0.037165,9.438e-4 -0.00828,0.00116 -0.070312,-0.056641 -0.014798,-0.013788 -0.025211,-0.032472 -0.037109,-0.048828 -0.00627,-0.00862 -0.028107,-0.029042 -0.017578,-0.027344 0.00889,0.00593 0.02515,0.016789 0.019531,0.011719 -0.1108251,-0.099992 -0.058644,-0.01985 -0.1308594,-0.1367188 -8.614e-4,-0.00139 0.00461,0.00148 0.00391,0 -0.00441,-0.00934 -0.0099,-0.018743 -0.015625,-0.027344 0.010624,0.0081 0.04103,0.034492 0.03125,0.025391 C 3.4759219,2.1213021 3.5675343,2.206624 3.5488281,2.1875 l -0.029297,-0.033203 c -0.00939,-0.00679 -0.015022,-0.0066 -0.017578,-0.013672 -0.00117,-0.00325 0.00486,0.00209 0.00977,0.00391 l -0.00977,-0.011719 C 3.4560643,2.1114336 3.4163191,2.0942997 3.375,2.0488281 c 0.06257,0.049679 0.00621,0.00578 -0.035156,-0.039063 -0.00173,-0.00148 -0.00221,-0.00435 -0.00391,-0.00586 -0.00777,-0.0054 0.00698,0.00707 -0.035156,-0.025391 0.0081,0.00373 -0.013942,-0.010649 -0.011719,-0.00977 z m 9.433594,4.8828125 c 3.68e-4,0.00117 -3.71e-4,0.00274 0,0.00391 0.0051,0.00674 0.01208,0.013091 0.01758,0.019531 -0.006,-0.00766 -0.01134,-0.015938 -0.01758,-0.023437 z M 3.5058594,2.1347656 c 0.00516,0.00412 0.00884,0.00932 0.013672,0.013672 0.00914,0.00504 0.020628,0.00809 0.015625,0.00586 -0.012479,-0.00557 -0.01851,-0.014562 -0.029297,-0.019531 z m 10.1328126,5.4726563 -0.002,0.00195 c 0.0018,4.323e-4 0.003,-2.18e-4 0.0039,0 z M 4.5585938,13.359375 c -0.014334,-0.0098 -0.036532,0.05827 -0.025391,0.04492 0.010785,-0.01292 0.021736,-0.02356 0.029297,-0.04102 -0.00198,-0.0014 -0.00188,-0.0025 -0.00391,-0.0039 z M 4.09375,13.800781 c -0.00353,0.0025 -0.0081,0.01029 -0.00586,0.0078 0.00224,-0.0025 0.00555,-0.0034 0.00781,-0.0059 z" />
    <path
       id="path3877"
       style="fill:none;stroke:#000000;stroke-width:1px;stroke-linecap:butt;stroke-linejoin:miter;stroke-opacity:1"
       d="M 2.1875,1.96875 V 13.875 l 4.8964844,-2.357422 c 0.057847,-0.04399 0.1173496,-0.08674 0.1777344,-0.126953 0.074682,-0.05376 0.1607009,-0.09774 0.2402343,-0.07227 l 0.6308594,-0.304687 c 0.00163,-0.0012 0.00225,-7.49e-4 0.00391,-0.002 0.078771,-0.05194 0.1249905,-0.0871 0.2070312,-0.125 0.017637,-0.0081 0.036369,-0.01302 0.054687,-0.01953 0.013406,-0.01311 0.028135,-0.02355 0.042969,-0.03516 0.023253,0.0036 0.02808,0.0083 0.046875,0.01172 L 13.875,8.25 11.976562,7.2304688 c -0.02566,-2.656e-4 -0.05178,0.00172 -0.07617,-0.00586 -0.0037,-0.00113 0.0052,-0.017008 0.0098,-0.029297 L 5.3925781,3.6914062 c -0.00515,-0.00105 -0.010551,0.00408 -0.015625,0.00195 -0.026915,-0.011256 -0.043232,-0.025561 -0.058594,-0.041016 z" />
  </g>
</svg>
